<?xml version="1.0" encoding="utf-8"?>
<!-- Generator: Adobe Illustrator 25.0.0, SVG Export Plug-In . SVG Version: 6.00 Build 0)  -->
<svg version="1.1" id="Layer_1" xmlns="http://www.w3.org/2000/svg" xmlns:xlink="http://www.w3.org/1999/xlink" x="0px" y="0px"
	 viewBox="0 0 100 100" style="enable-background:new 0 0 100 100;" xml:space="preserve">
<style type="text/css">
	.st0{fill:#2DBBAF;}
</style>
<path class="st0" d="M50.5,49.98c-4,0-7.24,3.25-7.24,7.25c0,4,3.24,7.24,7.24,7.24c4,0,7.24-3.25,7.24-7.24
	C57.74,53.22,54.5,49.98,50.5,49.98z M50.26,1.35c-27.01,0-48.91,21.9-48.91,48.91c0,27.01,21.9,48.91,48.91,48.91
	c27.01,0,48.91-21.9,48.91-48.91C99.18,23.25,77.28,1.35,50.26,1.35z M67.83,73.26H32.7c-4.44,0-7.83-3.96-7.15-8.34l1.6-10.36
	c0.55-3.53,3.58-6.12,7.15-6.12h4.19c1.97,0,3.57-1.6,3.57-3.57V42.5c0-1.95,1.58-3.54,3.54-3.54h9.81c1.95,0,3.54,1.59,3.54,3.54
	v2.37c0,1.97,1.6,3.57,3.57,3.57h3.72c3.56,0,6.6,2.6,7.14,6.12l1.6,10.36C75.66,69.31,72.27,73.26,67.83,73.26z M76.27,42.35
	c0,1.13-0.91,2.04-2.04,2.04h-9.64c-1.29,0-2.34-1.05-2.34-2.34v-1.76c0-2.25-1.82-4.08-4.08-4.08H42.35
	c-2.25,0-4.08,1.82-4.08,4.08v1.76c0,1.29-1.05,2.34-2.34,2.34h-9.64c-1.12,0-2.03-0.91-2.03-2.03v-2.3
	c0-7.07,7.63-12.79,25.59-12.79h0.83c17.96,0,25.59,5.72,25.59,12.79V42.35z"/>
</svg>
