<?xml version="1.0" encoding="utf-8"?>
<!-- Generator: Adobe Illustrator 25.0.0, SVG Export Plug-In . SVG Version: 6.00 Build 0)  -->
<svg version="1.1" id="Layer_1" xmlns="http://www.w3.org/2000/svg" xmlns:xlink="http://www.w3.org/1999/xlink" x="0px" y="0px"
	 viewBox="0 0 100 100" style="enable-background:new 0 0 100 100;" xml:space="preserve">
<style type="text/css">
	.st0{fill:#2DBBAF;}
</style>
<path class="st0" d="M27.09,62.33c3.01,5.39,7.86,9.54,13.75,11.62c-2.32-2.84-4.15-6.86-5.34-11.62H27.09z M34.01,50
	c0-2.49,0.21-4.85,0.51-7.13h-9.62c-0.67,2.28-1.14,4.64-1.14,7.13c0,3.26,0.67,6.35,1.79,9.22h9.3
	C34.35,56.32,34.01,53.26,34.01,50z M40.84,26.04c-6.65,2.35-12.06,7.3-14.89,13.71h9.07C36.16,34.07,38.19,29.29,40.84,26.04z
	 M37.13,50c0,3.24,0.33,6.34,0.88,9.22h22.52c0.55-2.88,0.88-5.98,0.88-9.22c0-2.48-0.23-4.84-0.57-7.13H37.69
	C37.36,45.16,37.13,47.52,37.13,50z M38.76,62.33c2.11,7.75,6.05,13.17,10.51,13.17s8.4-5.42,10.51-13.17H38.76z M60.32,39.75
	c-1.92-8.88-6.2-15.25-11.06-15.25s-9.13,6.37-11.06,15.25H60.32z M50,1.24C23.07,1.24,1.24,23.07,1.24,50
	c0,26.93,21.83,48.76,48.76,48.76c26.93,0,48.76-21.83,48.76-48.76C98.76,23.07,76.93,1.24,50,1.24z M49.27,78.62
	c-15.78,0-28.62-12.84-28.62-28.62s12.84-28.62,28.62-28.62S77.88,34.22,77.88,50S65.05,78.62,49.27,78.62z M57.69,26.04
	c2.65,3.25,4.68,8.03,5.81,13.71h9.07C69.75,33.34,64.34,28.39,57.69,26.04z M64.52,50c0,3.26-0.34,6.32-0.85,9.22h9.31
	c1.12-2.87,1.79-5.96,1.79-9.22c0-2.49-0.47-4.85-1.14-7.13h-9.62C64.31,45.15,64.52,47.51,64.52,50z M57.69,73.96
	c5.89-2.08,10.74-6.24,13.75-11.62h-8.41C61.84,67.09,60.01,71.12,57.69,73.96z"/>
</svg>
