<?xml version="1.0" encoding="utf-8"?>
<!-- Generator: Adobe Illustrator 25.0.0, SVG Export Plug-In . SVG Version: 6.00 Build 0)  -->
<svg version="1.1" id="Layer_1" xmlns="http://www.w3.org/2000/svg" xmlns:xlink="http://www.w3.org/1999/xlink" x="0px" y="0px"
	 viewBox="0 0 200.35 200.35" style="enable-background:new 0 0 200.35 200.35;" xml:space="preserve">
<style type="text/css">
	.st0{fill:#2CBDB0;}
	.st1{fill:#036975;}
</style>
<g>
	<path class="st0" d="M100.18,198.65c-13.29,0-26.19-2.6-38.33-7.74c-11.73-4.96-22.26-12.06-31.3-21.1
		c-9.04-9.04-16.14-19.57-21.1-31.3c-5.14-12.14-7.74-25.04-7.74-38.33c0-13.29,2.6-26.19,7.74-38.33
		c4.96-11.73,12.06-22.26,21.1-31.3c9.04-9.04,19.57-16.14,31.3-21.1c12.14-5.14,25.04-7.74,38.33-7.74
		c13.29,0,26.19,2.6,38.33,7.74c11.73,4.96,22.26,12.06,31.3,21.1c9.04,9.04,16.14,19.57,21.1,31.3
		c5.14,12.14,7.74,25.04,7.74,38.33c0,13.29-2.6,26.19-7.74,38.33c-4.96,11.73-12.06,22.26-21.1,31.3
		c-9.04,9.04-19.57,16.14-31.3,21.1C126.36,196.04,113.47,198.65,100.18,198.65z M100.18,4.25c-52.9,0-95.93,43.03-95.93,95.93
		c0,52.9,43.03,95.93,95.93,95.93c52.9,0,95.93-43.03,95.93-95.93C196.11,47.28,153.07,4.25,100.18,4.25z"/>
	<path class="st0" d="M100.18,32.7c-37.27,0-67.48,30.21-67.48,67.48c0,9.73,2.06,18.98,5.77,27.34l4.48-10.4
		c-1.59-5.37-2.44-11.06-2.44-16.94c0-32.95,26.71-59.67,59.67-59.67c32.95,0,59.67,26.71,59.67,59.67
		c0,32.95-26.71,59.67-59.67,59.67c-20.7,0-38.94-10.54-49.64-26.55l-3.55,8.4c12.35,15.8,31.58,25.95,53.19,25.95
		c37.27,0,67.48-30.21,67.48-67.48C167.65,62.91,137.44,32.7,100.18,32.7z"/>
	<g>
		<g>
			<path class="st1" d="M23.62,101.71l-0.05,2.02l-10.52-4.8l0.06-2.12l10.77-4.33l-0.06,2.12l-2.94,1.14l-0.09,3.54l-1.69-0.72
				l0.06-2.14l-4.04,1.57L23.62,101.71z"/>
			<path class="st1" d="M25.2,82.3c0.18,0.96,0.17,2.02-0.03,3.17c-0.67,3.76-2.82,5.32-6.46,4.68c-3.45-0.61-4.84-2.8-4.17-6.56
				c0.2-1.15,0.56-2.14,1.06-2.99l1.76,0.31c-0.55,0.84-0.92,1.78-1.11,2.83c-0.45,2.52,0.49,3.98,2.81,4.39
				c2.52,0.45,4-0.59,4.44-3.11c0.19-1.05,0.16-2.06-0.07-3.04L25.2,82.3z"/>
			<path class="st1" d="M28.46,71.93c0.04,0.98-0.12,2.03-0.48,3.13c-1.19,3.63-3.55,4.87-7.06,3.71c-3.32-1.09-4.39-3.45-3.2-7.09
				c0.36-1.11,0.85-2.04,1.47-2.81l1.7,0.56c-0.66,0.75-1.16,1.63-1.5,2.64c-0.8,2.43-0.08,4.01,2.16,4.75
				c2.43,0.8,4.04-0.02,4.84-2.45c0.33-1.01,0.45-2.02,0.36-3.02L28.46,71.93z"/>
			<path class="st1" d="M23.43,58.71l1.53,0.74l-2.33,4.79l2.41,1.17l2.22-4.57l1.59,0.77l-2.23,4.59l2.51,1.22l2.39-4.91l1.54,0.75
				l-3.23,6.65l-9.58-4.66L23.43,58.71z"/>
			<path class="st1" d="M33.74,61.17l-1.49-0.98c0.92-0.67,1.75-1.57,2.49-2.7c0.9-1.36,0.89-2.35-0.02-2.95
				c-0.66-0.44-1.27-0.24-1.82,0.6l-0.92,1.39c-1.2,1.82-2.63,2.19-4.28,1.1c-1.83-1.2-1.89-3.1-0.18-5.69
				c0.65-1,1.42-1.84,2.3-2.54l1.49,0.98c-0.92,0.67-1.7,1.51-2.36,2.5c-0.98,1.49-1.04,2.53-0.17,3.1
				c0.66,0.44,1.23,0.29,1.71-0.43l0.92-1.39c1.27-1.94,2.74-2.36,4.4-1.27c1.87,1.23,1.99,3.07,0.37,5.54
				C35.42,59.56,34.62,60.47,33.74,61.17z"/>
			<path class="st1" d="M38.97,53.41l-1.36-1.16c0.99-0.56,1.92-1.35,2.79-2.38c1.06-1.25,1.17-2.22,0.33-2.93
				c-0.61-0.51-1.23-0.39-1.88,0.38l-1.08,1.27c-1.41,1.66-2.87,1.85-4.39,0.57c-1.67-1.41-1.5-3.3,0.51-5.67
				c0.77-0.91,1.63-1.66,2.59-2.25l1.36,1.16c-0.99,0.56-1.87,1.29-2.64,2.2c-1.16,1.36-1.33,2.38-0.54,3.06
				c0.61,0.51,1.19,0.44,1.75-0.22l1.08-1.27c1.5-1.77,3.01-2.01,4.52-0.73c1.7,1.44,1.6,3.29-0.3,5.54
				C40.83,52.01,39.92,52.82,38.97,53.41z"/>
			<path class="st1" d="M43.56,33.93l7.01,8.01l-1.48,1.3l-7.01-8.01L43.56,33.93z"/>
			<path class="st1" d="M52.63,40.08l-6.08-8.74l1.62-1.13l9.05,3.16L52.78,27l1.56-1.09l6.08,8.74l-1.62,1.13l-9.14-3.29l4.53,6.5
				L52.63,40.08z"/>
			<path class="st1" d="M64.16,20.71l0.78,1.53l-2.72,1.39l4.07,7.96l-1.76,0.9l-4.07-7.96l-2.72,1.39l-0.78-1.53L64.16,20.71z"/>
			<path class="st1" d="M73.69,17.06l0.59,1.59l-5,1.84L70.2,23l4.77-1.75l0.61,1.66l-4.79,1.76l0.96,2.62l5.12-1.88l0.59,1.61
				l-6.94,2.55l-3.67-9.99L73.69,17.06z"/>
			<path class="st1" d="M87.86,24.05c-0.76,0.55-1.77,0.97-3.03,1.25c-3.67,0.81-5.9-0.59-6.7-4.2c-0.75-3.42,0.74-5.54,4.47-6.36
				c1.14-0.25,2.19-0.31,3.17-0.16l0.38,1.75c-0.98-0.19-1.99-0.17-3.04,0.06c-2.5,0.55-3.49,1.98-2.98,4.28
				c0.55,2.5,2,3.49,4.36,2.97c0.35-0.08,0.73-0.22,1.15-0.44l-0.67-3.03l1.93-0.42L87.86,24.05z"/>
			<path class="st1" d="M90.28,24.21l-0.84-10.6l4.83-0.38c2.17-0.17,3.33,0.69,3.48,2.59c0.1,1.28-0.66,2.41-2.28,3.38l3.72,4.32
				l-2.48,0.2l-3.59-4.37l-0.07-0.9c1.86-0.47,2.74-1.27,2.65-2.41c-0.06-0.78-0.53-1.14-1.41-1.07l-2.69,0.21l0.7,8.87L90.28,24.21
				z"/>
			<path class="st1" d="M101.68,23.62l-2.02-0.13l5.21-10.33l2.12,0.14l3.91,10.93l-2.12-0.14l-1.02-2.98l-3.53-0.23l0.79-1.66
				l2.14,0.14l-1.41-4.1L101.68,23.62z"/>
			<path class="st1" d="M120.39,15.3l-0.32,1.68l-3-0.57l-1.66,8.78l-1.94-0.37l1.66-8.78l-3-0.57l0.32-1.68L120.39,15.3z"/>
			<path class="st1" d="M124.84,16.58l-2.89,10.25l-1.9-0.54l2.89-10.25L124.84,16.58z"/>
			<path class="st1" d="M138.03,21.47l-8.32,8.12l-1.97-0.8l-0.15-11.55l2.17,0.88l0,8.8l6.11-6.33L138.03,21.47z"/>
			<path class="st1" d="M147.04,26.61l-0.85,1.47l-4.61-2.67l-1.34,2.32l4.4,2.54l-0.88,1.53l-4.42-2.55l-1.4,2.42l4.72,2.73
				l-0.86,1.48l-6.4-3.7l5.33-9.22L147.04,26.61z"/>
			<path class="st1" d="M147.01,39.45l7.1-7.93l1.53,1.37l-2.7,8.43l8.02-3.66l1.47,1.32l-7.1,7.93l-1.36-1.22l4.95-5.53l-7.1,3.6
				l-1.25-1.12l2.75-7.49l-4.95,5.53L147.01,39.45z"/>
			<path class="st1" d="M169.92,47.81l-1.31,1.08l-3.39-4.12l-2.07,1.7l3.23,3.92l-1.36,1.12l-3.24-3.94l-2.16,1.77l3.47,4.22
				l-1.32,1.09l-4.7-5.71l8.23-6.76L169.92,47.81z"/>
			<path class="st1" d="M163.13,56.5l9.08-5.56l2.18,3.56c1.84,3.01,1.33,5.39-1.53,7.14c-3.19,1.95-5.71,1.43-7.55-1.58
				L163.13,56.5z M166.77,59.16c1.15,1.88,2.84,2.15,5.06,0.79c1.89-1.16,2.26-2.68,1.1-4.56l-1.15-1.87l-6.16,3.77L166.77,59.16z"
				/>
			<path class="st1" d="M179.41,63.85l-9.63,4.55l-0.84-1.78l9.63-4.55L179.41,63.85z"/>
			<path class="st1" d="M174.23,78.79c-0.63-0.75-1.14-1.68-1.53-2.78c-1.27-3.61-0.16-6.02,3.33-7.25c3.3-1.16,5.59,0.06,6.86,3.66
				c0.39,1.1,0.57,2.14,0.55,3.12l-1.69,0.59c0.07-1-0.07-2-0.43-3.01c-0.85-2.41-2.39-3.23-4.61-2.44
				c-2.41,0.85-3.19,2.48-2.34,4.89c0.35,1.01,0.87,1.88,1.55,2.61L174.23,78.79z"/>
			<path class="st1" d="M185.14,80.74l-10.35,2.48l-0.46-1.92l10.35-2.48L185.14,80.74z"/>
			<path class="st1" d="M175.48,85.92l10.57-1.32l0.24,1.96l-7,6.54l7.7-0.96l0.23,1.88l-10.57,1.32l-0.24-1.96l7.17-6.56
				l-7.86,0.98L175.48,85.92z"/>
			<path class="st1" d="M187.23,105.51l-1.7-0.03l0.09-5.33l-2.68-0.05l-0.09,5.08l-1.76-0.03l0.09-5.1l-2.79-0.05l-0.09,5.46
				l-1.71-0.03l0.13-7.39l10.65,0.18L187.23,105.51z"/>
		</g>
	</g>
	<g>
		<g>
			<path class="st1" d="M37.24,147.91l-0.98,0.69l-2.05-2.9l-1.54,1.09l1.95,2.75l-1.02,0.72l-1.96-2.76l-2.59,1.84l-0.79-1.11
				l6.13-4.34L37.24,147.91z"/>
			<path class="st1" d="M35.12,151.39c1.93-1.66,3.71-1.54,5.35,0.36c1.62,1.87,1.46,3.64-0.46,5.3c-1.91,1.65-3.68,1.55-5.3-0.33
				C33.14,154.9,33.28,153.13,35.12,151.39z M35.63,155.93c0.99,1.14,2.14,1.15,3.46,0c1.3-1.12,1.46-2.26,0.47-3.4
				c-1.01-1.17-2.17-1.2-3.47-0.07C34.77,153.6,34.61,154.76,35.63,155.93z"/>
			<path class="st1" d="M38.87,161.17l5.15-5.45l2.48,2.34c1.11,1.05,1.21,2.07,0.29,3.04c-0.62,0.66-1.57,0.79-2.85,0.41l-0.5,3.99
				l-1.27-1.2l0.59-3.95l0.44-0.46c1.12,0.75,1.96,0.83,2.51,0.24c0.38-0.4,0.34-0.82-0.11-1.24l-1.39-1.31l-4.31,4.56L38.87,161.17
				z"/>
			<path class="st1" d="M52.75,163.3l-3.75,5.06l2.4,1.77l-0.72,0.97l-3.52-2.6l4.46-6.03L52.75,163.3z"/>
			<path class="st1" d="M57.77,166.78l-4.09,6.29l-1.17-0.76l4.09-6.29L57.77,166.78z"/>
			<path class="st1" d="M63.75,170.28l-0.59,1.04l-3.09-1.74l-0.93,1.65l2.93,1.66l-0.61,1.08l-2.95-1.66l-1.56,2.77l-1.19-0.67
				l3.69-6.54L63.75,170.28z"/>
			<path class="st1" d="M69.79,173.11l-0.5,1.09l-3.42-1.56l-0.79,1.72l3.26,1.49l-0.52,1.13l-3.27-1.5l-0.82,1.79l3.5,1.6l-0.5,1.1
				L62,177.8l3.12-6.83L69.79,173.11z"/>
			<path class="st1" d="M72.17,178.5l-0.39,1.03l-2.46-0.92l0.39-1.03L72.17,178.5z"/>
			<path class="st1" d="M78.97,183.74c-0.69,0.05-1.43-0.04-2.22-0.27c-2.59-0.76-3.51-2.38-2.78-4.89
				c0.69-2.37,2.33-3.17,4.92-2.42c0.79,0.23,1.46,0.55,2.01,0.97l-0.35,1.21c-0.54-0.45-1.18-0.78-1.9-0.99
				c-1.73-0.51-2.83,0.04-3.29,1.64c-0.51,1.73,0.11,2.85,1.84,3.35c0.72,0.21,1.43,0.27,2.13,0.19L78.97,183.74z"/>
			<path class="st1" d="M81.2,184.6l1.36-7.38l1.37,0.25l-0.56,3.05l3.64,0.67l0.56-3.05l1.37,0.25l-1.36,7.38l-1.37-0.25l0.58-3.15
				l-3.64-0.67l-0.58,3.15L81.2,184.6z"/>
			<path class="st1" d="M91,186.18l-1.42-0.11l3.75-7.24l1.49,0.11l2.68,7.73L96,186.56l-0.7-2.11l-2.49-0.19l0.57-1.17l1.51,0.11
				l-0.96-2.9L91,186.18z"/>
			<path class="st1" d="M99.49,186.69l-0.23-7.5l1.39-0.04l4.13,5.35l-0.17-5.47l1.34-0.04l0.23,7.5l-1.39,0.04l-4.13-5.46
				l0.17,5.58L99.49,186.69z"/>
			<path class="st1" d="M114.71,185.11c-0.57,0.34-1.3,0.57-2.2,0.69c-2.63,0.35-4.11-0.77-4.45-3.35c-0.32-2.45,0.85-3.85,3.52-4.2
				c0.82-0.11,1.56-0.08,2.23,0.07l0.17,1.25c-0.68-0.19-1.39-0.24-2.14-0.14c-1.79,0.24-2.57,1.18-2.35,2.83
				c0.24,1.79,1.2,2.57,2.88,2.34c0.25-0.03,0.53-0.11,0.84-0.24l-0.29-2.16l1.38-0.18L114.71,185.11z"/>
			<path class="st1" d="M116.8,177.37l1.51,7.35l-1.36,0.28l-1.51-7.35L116.8,177.37z"/>
			<path class="st1" d="M120.79,184.22l-2.07-7.22l1.34-0.38l5.32,4.17l-1.5-5.26l1.29-0.37l2.07,7.22l-1.34,0.38l-5.35-4.28
				l1.54,5.37L120.79,184.22z"/>
			<path class="st1" d="M135.16,178.94c-0.46,0.47-1.12,0.88-1.96,1.22c-2.46,0.99-4.17,0.27-5.14-2.15
				c-0.92-2.29-0.13-3.94,2.37-4.94c0.76-0.31,1.49-0.47,2.18-0.48l0.47,1.17c-0.71-0.02-1.41,0.11-2.1,0.39
				c-1.67,0.67-2.2,1.78-1.58,3.32c0.67,1.67,1.8,2.19,3.37,1.56c0.23-0.09,0.48-0.24,0.75-0.44l-0.81-2.03l1.29-0.52L135.16,178.94
				z"/>
			<path class="st1" d="M140.26,176.86l-3.73-6.51l1.21-0.69l1.54,2.69l3.21-1.84l-1.54-2.69l1.21-0.69l3.73,6.51l-1.21,0.69
				l-1.59-2.78l-3.21,1.84l1.59,2.78L140.26,176.86z"/>
			<path class="st1" d="M147.93,163.1l0.69,0.98l-3.07,2.17l1.09,1.54l2.92-2.07l0.72,1.02l-2.93,2.08l1.14,1.61l3.14-2.22l0.7,0.99
				l-4.25,3.01l-4.34-6.13L147.93,163.1z"/>
			<path class="st1" d="M154.77,167.26l-1.08,0.93l-2.5-7.76l1.13-0.98l7.37,3.55l-1.13,0.98l-1.99-0.99l-1.89,1.63l-0.43-1.23
				l1.14-0.99l-2.74-1.36L154.77,167.26z"/>
			<path class="st1" d="M156.6,155.39l4.54,4.37l2.07-2.15l0.87,0.84l-3.03,3.15l-5.41-5.21L156.6,155.39z"/>
			<path class="st1" d="M161.97,149.39l0.92,0.79l-1.4,1.63l4.78,4.1l-0.91,1.06l-4.78-4.1l-1.4,1.63l-0.92-0.79L161.97,149.39z"/>
			<path class="st1" d="M168.8,152.86l-6.12-4.35l0.81-1.13l2.52,1.79l2.14-3.02l-2.52-1.79l0.81-1.13l6.12,4.35l-0.81,1.13
				l-2.61-1.86l-2.14,3.02l2.61,1.86L168.8,152.86z"/>
		</g>
	</g>
	<path class="st1" d="M69.79,80.64h-7.23l-17.88,41.49l-4.15,9.63c1.21,2.28,2.55,4.49,4,6.6l3.71-8.78l17.77-42.01l5.71,13.63
		h-7.31l-2.31,5.84h12.06l4.14,9.9h7.23L69.79,80.64z"/>
	<path class="st1" d="M94.24,91.53c-0.51,0-1.03-0.03-1.56-0.1v25.5h6.73V90.24C98.11,90.96,96.4,91.53,94.24,91.53z"/>
	<path class="st1" d="M109.72,116.94v-36.3h6.98l12.31,27.54l12.06-27.54h6.73v36.3h-6.22V91.65l-9.85,25.28h-5.74l-10.05-25.28
		v25.28H109.72z"/>
	<path class="st0" d="M25.91,123.74c-3.27-2.71-8.88-2.71-8.88-2.71c-0.09,3.12,1.31,6.09,2.18,7.62c0.65,1.02,1.79,2.39,3.61,3.3
		c2.98,1.38,5.79,0.56,5.79,0.56C29.76,126.58,26.04,123.85,25.91,123.74z"/>
	<path class="st0" d="M175.78,123.74c3.27-2.71,8.88-2.71,8.88-2.71c0.09,3.12-1.31,6.09-2.18,7.62c-0.65,1.02-1.79,2.39-3.61,3.3
		c-2.98,1.38-5.79,0.56-5.79,0.56C171.92,126.58,175.64,123.85,175.78,123.74z"/>
	<path class="st0" d="M96.29,79.86c-0.42,0.22-2.88,1.59-3.7,4.19c-0.61,2.02-0.11,3.74-0.11,3.74c4.75,0.92,6.94-2.07,7.03-2.18
		c2.18-2.63,2.18-7.12,2.18-7.12C99.61,78.43,97.61,79.19,96.29,79.86z"/>
</g>
</svg>
