<?xml version="1.0" encoding="utf-8"?>
<!-- Generator: Adobe Illustrator 25.0.0, SVG Export Plug-In . SVG Version: 6.00 Build 0)  -->
<svg version="1.1" id="Layer_1" xmlns="http://www.w3.org/2000/svg" xmlns:xlink="http://www.w3.org/1999/xlink" x="0px" y="0px"
	 viewBox="0 0 100 100" style="enable-background:new 0 0 100 100;" xml:space="preserve">
<style type="text/css">
	.st0{fill:#2DBBAF;}
</style>
<path class="st0" d="M50.07,0.85c-27.14,0-49.15,22-49.15,49.15c0,27.14,22,49.15,49.15,49.15c27.14,0,49.15-22,49.15-49.15
	C99.22,22.86,77.21,0.85,50.07,0.85z M75.85,72.77l-2.15,2.02c-6.62,6.2-21.57,5.99-37.89-11.43l-0.75-0.81
	c-16.32-17.41-15.25-32-8.63-38.2l2.15-2.01c1.05-0.99,2.74-0.9,3.76,0.19l8.76,9.35c1.17,1.25,1.14,3.19-0.06,4.32l-1.65,1.54
	c-2.11,1.98-2.16,5.35-0.11,7.53l14.39,15.35c2.05,2.18,5.41,2.35,7.52,0.38l1.65-1.54c1.21-1.13,3.14-1.04,4.31,0.21l8.77,9.35
	C76.93,70.11,76.9,71.79,75.85,72.77z"/>
</svg>
